<svg xmlns="http://www.w3.org/2000/svg" xmlns:xlink="http://www.w3.org/1999/xlink" contentStyleType="text/css" data-diagram-type="CLASS" height="514px" preserveAspectRatio="none" style="width:647px;height:514px;background:#FFFFFF;" version="1.1" viewBox="0 0 647 514" width="647px" zoomAndPan="magnify"><defs/><g><!--class Item--><g class="entity" data-entity="Item" data-source-line="4" data-uid="ent0002" id="entity_Item"><rect fill="#F1F1F1" height="37.0679" rx="2.5" ry="2.5" style="stroke:#181818;stroke-width:0.5;" width="36.7859" x="339.5" y="7"/><text fill="#000000" font-family="sans-serif" font-size="14" lengthAdjust="spacing" textLength="30.7859" x="342.5" y="26.9659">Item</text><line style="stroke:#181818;stroke-width:0.5;" x1="340.5" x2="375.2859" y1="36.0679" y2="36.0679"/></g><!--class Dataset--><g class="entity" data-entity="Dataset" data-source-line="4" data-uid="ent0003" id="entity_Dataset"><rect fill="#F1F1F1" height="75.2038" rx="2.5" ry="2.5" style="stroke:#181818;stroke-width:0.5;" width="57.0938" x="329.5" y="105"/><text fill="#000000" font-family="sans-serif" font-size="14" lengthAdjust="spacing" textLength="50.6378" x="332.728" y="124.9659">Dataset</text><line style="stroke:#181818;stroke-width:0.5;" x1="330.5" x2="385.5938" y1="134.0679" y2="134.0679"/><text fill="#000000" font-family="sans-serif" font-size="14" lengthAdjust="spacing" textLength="41.9578" x="335.5" y="153.0339">extent</text><text fill="#000000" font-family="sans-serif" font-size="14" lengthAdjust="spacing" textLength="45.0938" x="335.5" y="172.1018">license</text></g><!--class Registry--><g class="entity" data-entity="Registry" data-source-line="5" data-uid="ent0005" id="entity_Registry"><rect fill="#F1F1F1" height="37.0679" rx="2.5" ry="2.5" style="stroke:#181818;stroke-width:0.5;" width="59.5078" x="7" y="287.5"/><text fill="#000000" font-family="sans-serif" font-size="14" lengthAdjust="spacing" textLength="53.5078" x="10" y="307.4659">Registry</text><line style="stroke:#181818;stroke-width:0.5;" x1="8" x2="65.5078" y1="316.5679" y2="316.5679"/></g><!--class ConceptScheme--><g class="entity" data-entity="ConceptScheme" data-source-line="6" data-uid="ent0007" id="entity_ConceptScheme"><rect fill="#F1F1F1" height="37.0679" rx="2.5" ry="2.5" style="stroke:#181818;stroke-width:0.5;" width="112.1896" x="102" y="287.5"/><text fill="#000000" font-family="sans-serif" font-size="14" lengthAdjust="spacing" textLength="106.1896" x="105" y="307.4659">ConceptScheme</text><line style="stroke:#181818;stroke-width:0.5;" x1="103" x2="213.1896" y1="316.5679" y2="316.5679"/></g><!--class Concordance--><g class="entity" data-entity="Concordance" data-source-line="7" data-uid="ent0009" id="entity_Concordance"><rect fill="#F1F1F1" height="37.0679" rx="2.5" ry="2.5" style="stroke:#181818;stroke-width:0.5;" width="92.6737" x="249.5" y="287.5"/><text fill="#000000" font-family="sans-serif" font-size="14" lengthAdjust="spacing" textLength="86.6737" x="252.5" y="307.4659">Concordance</text><line style="stroke:#181818;stroke-width:0.5;" x1="250.5" x2="341.1737" y1="316.5679" y2="316.5679"/></g><!--class Distribution--><g class="entity" data-entity="Distribution" data-source-line="14" data-uid="ent0011" id="entity_Distribution"><rect fill="#F1F1F1" height="94.2717" rx="2.5" ry="2.5" style="stroke:#181818;stroke-width:0.5;" width="84.0357" x="378" y="259"/><text fill="#000000" font-family="sans-serif" font-size="14" lengthAdjust="spacing" textLength="78.0357" x="381" y="278.9659">Distribution</text><line style="stroke:#181818;stroke-width:0.5;" x1="379" x2="461.0357" y1="288.0679" y2="288.0679"/><text fill="#000000" font-family="sans-serif" font-size="14" lengthAdjust="spacing" textLength="65.2818" x="384" y="307.0339">download</text><text fill="#000000" font-family="sans-serif" font-size="14" lengthAdjust="spacing" textLength="45.0938" x="384" y="326.1018">license</text><text fill="#000000" font-family="sans-serif" font-size="14" lengthAdjust="spacing" textLength="11.256" x="384" y="345.1697">...</text></g><!--class Service--><g class="entity" data-entity="Service" data-source-line="20" data-uid="ent0012" id="entity_Service"><rect fill="#F1F1F1" height="75.2038" rx="2.5" ry="2.5" style="stroke:#181818;stroke-width:0.5;" width="71.5558" x="496" y="432"/><text fill="#000000" font-family="sans-serif" font-size="14" lengthAdjust="spacing" textLength="46.7038" x="508.426" y="451.9659">Service</text><line style="stroke:#181818;stroke-width:0.5;" x1="497" x2="566.5558" y1="461.0679" y2="461.0679"/><text fill="#000000" font-family="sans-serif" font-size="14" lengthAdjust="spacing" textLength="20.0759" x="502" y="480.0339">api</text><text fill="#000000" font-family="sans-serif" font-size="14" lengthAdjust="spacing" textLength="59.5558" x="502" y="499.1018">endpoint</text></g><!--reverse link Item to Dataset--><g class="link" data-entity-1="Item" data-entity-2="Dataset" data-source-line="4" data-uid="lnk4" id="link_Item_Dataset"><path codeLine="4" d="M358,62.47 C358,78.51 358,84.52 358,104.64" fill="none" id="Item-backto-Dataset" style="stroke:#181818;stroke-width:1;"/><polygon fill="none" points="358,44.47,352,62.47,364,62.47,358,44.47" style="stroke:#181818;stroke-width:1;"/></g><!--reverse link Dataset to Registry--><g class="link" data-entity-1="Dataset" data-entity-2="Registry" data-source-line="5" data-uid="lnk6" id="link_Dataset_Registry"><path codeLine="5" d="M312.2104,156.7965 C260.3904,172.3565 165.89,204.55 84,259 C72.21,266.84 60.82,277.88 52.2,287.17" fill="none" id="Dataset-backto-Registry" style="stroke:#181818;stroke-width:1;"/><polygon fill="none" points="329.45,151.62,310.4849,151.05,313.9359,162.5431,329.45,151.62" style="stroke:#181818;stroke-width:1;"/></g><!--reverse link Dataset to ConceptScheme--><g class="link" data-entity-1="Dataset" data-entity-2="ConceptScheme" data-source-line="6" data-uid="lnk8" id="link_Dataset_ConceptScheme"><path codeLine="6" d="M315.3366,177.9495 C274.9466,210.5695 216.14,258.05 179.83,287.37" fill="none" id="Dataset-backto-ConceptScheme" style="stroke:#181818;stroke-width:1;"/><polygon fill="none" points="329.34,166.64,311.5668,173.2817,319.1064,182.6173,329.34,166.64" style="stroke:#181818;stroke-width:1;"/></g><!--reverse link Dataset to Concordance--><g class="link" data-entity-1="Dataset" data-entity-2="Concordance" data-source-line="7" data-uid="lnk10" id="link_Dataset_Concordance"><path codeLine="7" d="M337.4791,196.9544 C324.6191,230.4544 312.6,261.76 302.76,287.38" fill="none" id="Dataset-backto-Concordance" style="stroke:#181818;stroke-width:1;"/><polygon fill="none" points="343.93,180.15,331.8777,194.8041,343.0806,199.1046,343.93,180.15" style="stroke:#181818;stroke-width:1;"/></g><!--link Dataset to Dataset--><g class="link" data-entity-1="Dataset" data-entity-2="Dataset" data-source-line="25" data-uid="lnk13" id="link_Dataset_Dataset"><path codeLine="25" d="M386.73,130.65 C404.55,127.79 421.5,131.74 421.5,142.5 C421.5,153.26 404.55,157.21 386.73,154.35" fill="none" id="Dataset-Dataset" style="stroke:#181818;stroke-width:1;"/><text fill="#000000" font-family="sans-serif" font-size="13" lengthAdjust="spacing" textLength="109.0311" x="427.5" y="147.897">version/versionOf</text></g><!--link Dataset to Service--><g class="link" data-entity-1="Dataset" data-entity-2="Service" data-source-line="27" data-uid="lnk14" id="link_Dataset_Service"><path codeLine="27" d="M386.68,152.04 C413.92,161.66 453.88,180 476,210 C525.2,276.7 532.8333,371.8501 533.0733,425.7201" fill="none" id="Dataset-to-Service" style="stroke:#181818;stroke-width:1;"/><polygon fill="#181818" points="533.1,431.72,537.0599,422.7023,533.0777,426.72,529.0599,422.7379,533.1,431.72" style="stroke:#181818;stroke-width:1;"/><text fill="#000000" font-family="sans-serif" font-size="13" lengthAdjust="spacing" textLength="48.685" x="529" y="311.397">services</text></g><!--link Service to Dataset--><g class="link" data-entity-1="Service" data-entity-2="Dataset" data-source-line="30" data-uid="lnk17" id="link_Service_Dataset"><path codeLine="30" d="M556.88,431.99 C583.14,388.5 616.8,314.72 586,259 C545,184.83 444.1641,158.1084 392.6041,148.7784" fill="none" id="Service-to-Dataset" style="stroke:#181818;stroke-width:1;"/><polygon fill="#181818" points="386.7,147.71,394.8439,153.2486,391.6201,148.6003,396.2684,145.3765,386.7,147.71" style="stroke:#181818;stroke-width:1;"/><text fill="#000000" font-family="sans-serif" font-size="13" lengthAdjust="spacing" textLength="39.091" x="600" y="311.397">serves</text></g><!--link Dataset to Distribution--><g class="link" data-entity-1="Dataset" data-entity-2="Distribution" data-source-line="28" data-uid="lnk15" id="link_Dataset_Distribution"><path codeLine="28" d="M372.07,180.15 C381.04,203.51 390.5803,228.3683 400.1703,253.3583" fill="none" id="Dataset-to-Distribution" style="stroke:#181818;stroke-width:1;"/><polygon fill="#181818" points="402.32,258.96,402.83,249.1244,400.5286,254.2919,395.361,251.9906,402.32,258.96" style="stroke:#181818;stroke-width:1;"/><text fill="#000000" font-family="sans-serif" font-size="13" lengthAdjust="spacing" textLength="77.1941" x="390" y="224.897">distributions</text></g><!--link Distribution to Service--><g class="link" data-entity-1="Distribution" data-entity-2="Service" data-source-line="29" data-uid="lnk16" id="link_Distribution_Service"><path codeLine="29" d="M432.43,353.22 C438.09,369.5 445.84,387.37 456,402 C466.8,417.55 477.3521,428.0503 491.3321,439.3403" fill="none" id="Distribution-to-Service" style="stroke:#181818;stroke-width:1;"/><polygon fill="#181818" points="496,443.11,491.5113,434.3435,492.1101,439.9686,486.485,440.5674,496,443.11" style="stroke:#181818;stroke-width:1;"/><text fill="#000000" font-family="sans-serif" font-size="13" lengthAdjust="spacing" textLength="48.685" x="457" y="397.897">services</text></g><!--SRC=[TOzD3i8W48Ntd68kODqtnerkN9dO4o2CbgI5XXchHhsxq5yQusf-tiTxGsaqGerSEasYZ8CoNbL8GXmOQzYyLolOIvQ4B8RQBqzuDSJ-kTpkd5NOSA5AhF5NSbxB00YXAaaq6iDB0E23qN9eAgFG4ehFHCKSSxwnSRP3jRlRoacTm01PbirF2lHjK3fQDYRQMzqu4m82CyRENuCSMlGK0jP3FLvIRZivva1zHmjvSMCEEXa3c8f_pCPLPpOT5MMaBm00]--></g></svg>