<svg xmlns="http://www.w3.org/2000/svg" xmlns:xlink="http://www.w3.org/1999/xlink" contentStyleType="text/css" data-diagram-type="CLASS" height="533px" preserveAspectRatio="none" style="width:647px;height:533px;background:#FFFFFF;" version="1.1" viewBox="0 0 647 533" width="647px" zoomAndPan="magnify"><defs/><g><!--class Item--><g class="entity" data-entity="Item" data-source-line="4" data-uid="ent0002" id="entity_Item"><rect fill="#F1F1F1" height="37.0679" rx="2.5" ry="2.5" style="stroke:#181818;stroke-width:0.5;" width="36.7859" x="339.5" y="7"/><text fill="#000000" font-family="sans-serif" font-size="14" lengthAdjust="spacing" textLength="30.7859" x="342.5" y="26.9659">Item</text><line style="stroke:#181818;stroke-width:0.5;" x1="340.5" x2="375.2859" y1="36.0679" y2="36.0679"/></g><!--class Dataset--><g class="entity" data-entity="Dataset" data-source-line="4" data-uid="ent0003" id="entity_Dataset"><rect fill="#F1F1F1" height="94.2717" rx="2.5" ry="2.5" style="stroke:#181818;stroke-width:0.5;" width="93.3957" x="311.5" y="105"/><text fill="#000000" font-family="sans-serif" font-size="14" lengthAdjust="spacing" textLength="50.6378" x="332.8789" y="124.9659">Dataset</text><line style="stroke:#181818;stroke-width:0.5;" x1="312.5" x2="403.8957" y1="134.0679" y2="134.0679"/><text fill="#000000" font-family="sans-serif" font-size="14" lengthAdjust="spacing" textLength="41.9578" x="317.5" y="153.0339">extent</text><text fill="#000000" font-family="sans-serif" font-size="14" lengthAdjust="spacing" textLength="45.0938" x="317.5" y="172.1018">license</text><text fill="#000000" font-family="sans-serif" font-size="14" lengthAdjust="spacing" textLength="81.3957" x="317.5" y="191.1697">objectTypes</text></g><!--class Registry--><g class="entity" data-entity="Registry" data-source-line="5" data-uid="ent0005" id="entity_Registry"><rect fill="#F1F1F1" height="37.0679" rx="2.5" ry="2.5" style="stroke:#181818;stroke-width:0.5;" width="59.5078" x="7" y="306.5"/><text fill="#000000" font-family="sans-serif" font-size="14" lengthAdjust="spacing" textLength="53.5078" x="10" y="326.4659">Registry</text><line style="stroke:#181818;stroke-width:0.5;" x1="8" x2="65.5078" y1="335.5679" y2="335.5679"/></g><!--class ConceptScheme--><g class="entity" data-entity="ConceptScheme" data-source-line="6" data-uid="ent0007" id="entity_ConceptScheme"><rect fill="#F1F1F1" height="37.0679" rx="2.5" ry="2.5" style="stroke:#181818;stroke-width:0.5;" width="112.1896" x="102" y="306.5"/><text fill="#000000" font-family="sans-serif" font-size="14" lengthAdjust="spacing" textLength="106.1896" x="105" y="326.4659">ConceptScheme</text><line style="stroke:#181818;stroke-width:0.5;" x1="103" x2="213.1896" y1="335.5679" y2="335.5679"/></g><!--class Concordance--><g class="entity" data-entity="Concordance" data-source-line="7" data-uid="ent0009" id="entity_Concordance"><rect fill="#F1F1F1" height="37.0679" rx="2.5" ry="2.5" style="stroke:#181818;stroke-width:0.5;" width="92.6737" x="249.5" y="306.5"/><text fill="#000000" font-family="sans-serif" font-size="14" lengthAdjust="spacing" textLength="86.6737" x="252.5" y="326.4659">Concordance</text><line style="stroke:#181818;stroke-width:0.5;" x1="250.5" x2="341.1737" y1="335.5679" y2="335.5679"/></g><!--class Distribution--><g class="entity" data-entity="Distribution" data-source-line="15" data-uid="ent0011" id="entity_Distribution"><rect fill="#F1F1F1" height="94.2717" rx="2.5" ry="2.5" style="stroke:#181818;stroke-width:0.5;" width="84.0357" x="378" y="278"/><text fill="#000000" font-family="sans-serif" font-size="14" lengthAdjust="spacing" textLength="78.0357" x="381" y="297.9659">Distribution</text><line style="stroke:#181818;stroke-width:0.5;" x1="379" x2="461.0357" y1="307.0679" y2="307.0679"/><text fill="#000000" font-family="sans-serif" font-size="14" lengthAdjust="spacing" textLength="65.2818" x="384" y="326.0339">download</text><text fill="#000000" font-family="sans-serif" font-size="14" lengthAdjust="spacing" textLength="45.0938" x="384" y="345.1018">license</text><text fill="#000000" font-family="sans-serif" font-size="14" lengthAdjust="spacing" textLength="11.256" x="384" y="364.1697">...</text></g><!--class Service--><g class="entity" data-entity="Service" data-source-line="21" data-uid="ent0012" id="entity_Service"><rect fill="#F1F1F1" height="75.2038" rx="2.5" ry="2.5" style="stroke:#181818;stroke-width:0.5;" width="71.5558" x="496" y="451"/><text fill="#000000" font-family="sans-serif" font-size="14" lengthAdjust="spacing" textLength="46.7038" x="508.426" y="470.9659">Service</text><line style="stroke:#181818;stroke-width:0.5;" x1="497" x2="566.5558" y1="480.0679" y2="480.0679"/><text fill="#000000" font-family="sans-serif" font-size="14" lengthAdjust="spacing" textLength="20.0759" x="502" y="499.0339">api</text><text fill="#000000" font-family="sans-serif" font-size="14" lengthAdjust="spacing" textLength="59.5558" x="502" y="518.1018">endpoint</text></g><!--reverse link Item to Dataset--><g class="link" data-entity-1="Item" data-entity-2="Dataset" data-source-line="4" data-uid="lnk4" id="link_Item_Dataset"><path codeLine="4" d="M358,62.07 C358,77.83 358,83.64 358,104.8" fill="none" id="Item-backto-Dataset" style="stroke:#181818;stroke-width:1;"/><polygon fill="none" points="358,44.07,352,62.07,364,62.07,358,44.07" style="stroke:#181818;stroke-width:1;"/></g><!--reverse link Dataset to Registry--><g class="link" data-entity-1="Dataset" data-entity-2="Registry" data-source-line="5" data-uid="lnk6" id="link_Dataset_Registry"><path codeLine="5" d="M294.3665,174.688 C237.6865,194.908 157.51,227.57 84,278 C72.33,286.01 60.93,297.05 52.29,306.31" fill="none" id="Dataset-backto-Registry" style="stroke:#181818;stroke-width:1;"/><polygon fill="none" points="311.32,168.64,292.3505,169.0368,296.3825,180.3392,311.32,168.64" style="stroke:#181818;stroke-width:1;"/></g><!--reverse link Dataset to ConceptScheme--><g class="link" data-entity-1="Dataset" data-entity-2="ConceptScheme" data-source-line="6" data-uid="lnk8" id="link_Dataset_ConceptScheme"><path codeLine="6" d="M297.6791,204.5776 C255.6691,240.4976 209.56,279.92 178.5,306.47" fill="none" id="Dataset-backto-ConceptScheme" style="stroke:#181818;stroke-width:1;"/><polygon fill="none" points="311.36,192.88,293.7799,200.0173,301.5783,209.1379,311.36,192.88" style="stroke:#181818;stroke-width:1;"/></g><!--reverse link Dataset to Concordance--><g class="link" data-entity-1="Dataset" data-entity-2="Concordance" data-source-line="7" data-uid="lnk10" id="link_Dataset_Concordance"><path codeLine="7" d="M335.0829,216.2015 C322.3129,251.4115 311.58,281.03 302.48,306.13" fill="none" id="Dataset-backto-Concordance" style="stroke:#181818;stroke-width:1;"/><polygon fill="none" points="341.22,199.28,329.4424,214.1558,340.7234,218.2472,341.22,199.28" style="stroke:#181818;stroke-width:1;"/></g><!--link Dataset to Dataset--><g class="link" data-entity-1="Dataset" data-entity-2="Dataset" data-source-line="26" data-uid="lnk13" id="link_Dataset_Dataset"><path codeLine="26" d="M404.9,137.84 C423.71,137.04 439.5,141.76 439.5,152 C439.5,162.24 423.71,166.96 404.9,166.16" fill="none" id="Dataset-Dataset" style="stroke:#181818;stroke-width:1;"/><text fill="#000000" font-family="sans-serif" font-size="13" lengthAdjust="spacing" textLength="109.0311" x="445.5" y="157.397">version/versionOf</text></g><!--link Dataset to Service--><g class="link" data-entity-1="Dataset" data-entity-2="Service" data-source-line="28" data-uid="lnk14" id="link_Dataset_Service"><path codeLine="28" d="M404.51,171.54 C430.02,184.06 460.02,203.06 478,229 C525.01,296.83 532.5685,391.0701 532.9385,444.6101" fill="none" id="Dataset-to-Service" style="stroke:#181818;stroke-width:1;"/><polygon fill="#181818" points="532.98,450.61,536.9177,441.5826,532.9454,445.6101,528.9179,441.6379,532.98,450.61" style="stroke:#181818;stroke-width:1;"/><text fill="#000000" font-family="sans-serif" font-size="13" lengthAdjust="spacing" textLength="48.685" x="529" y="330.397">services</text></g><!--link Service to Dataset--><g class="link" data-entity-1="Service" data-entity-2="Dataset" data-source-line="31" data-uid="lnk17" id="link_Service_Dataset"><path codeLine="31" d="M557,450.67 C583.12,407.18 616.38,333.73 586,278 C549.16,210.42 466.0634,178.9333 410.7834,164.4233" fill="none" id="Service-to-Dataset" style="stroke:#181818;stroke-width:1;"/><polygon fill="#181818" points="404.98,162.9,412.6696,169.0539,409.8162,164.1694,414.7006,161.316,404.98,162.9" style="stroke:#181818;stroke-width:1;"/><text fill="#000000" font-family="sans-serif" font-size="13" lengthAdjust="spacing" textLength="39.091" x="600" y="330.397">serves</text></g><!--link Dataset to Distribution--><g class="link" data-entity-1="Dataset" data-entity-2="Distribution" data-source-line="29" data-uid="lnk15" id="link_Dataset_Distribution"><path codeLine="29" d="M374.78,199.28 C383.64,223.71 392.4234,247.9498 401.2734,272.3398" fill="none" id="Dataset-to-Distribution" style="stroke:#181818;stroke-width:1;"/><polygon fill="#181818" points="403.32,277.98,404.0103,268.1554,401.6145,273.2799,396.49,270.8841,403.32,277.98" style="stroke:#181818;stroke-width:1;"/><text fill="#000000" font-family="sans-serif" font-size="13" lengthAdjust="spacing" textLength="77.1941" x="392" y="243.897">distributions</text></g><!--link Distribution to Service--><g class="link" data-entity-1="Distribution" data-entity-2="Service" data-source-line="30" data-uid="lnk16" id="link_Distribution_Service"><path codeLine="30" d="M432.43,372.22 C438.09,388.5 445.84,406.37 456,421 C466.8,436.55 477.3521,447.0503 491.3321,458.3403" fill="none" id="Distribution-to-Service" style="stroke:#181818;stroke-width:1;"/><polygon fill="#181818" points="496,462.11,491.5113,453.3435,492.1101,458.9686,486.485,459.5674,496,462.11" style="stroke:#181818;stroke-width:1;"/><text fill="#000000" font-family="sans-serif" font-size="13" lengthAdjust="spacing" textLength="48.685" x="457" y="416.897">services</text></g><!--SRC=[TKzBRi8m4Dtx57C1qds4kcatNI415p3sQsCfiIFF04Ljxzvn824HOZNZULytmOCwI9CycwOyNCYk1Hlp8UXe_RjQqRiLon1pczVZ5b-19L-MrxSK7NhPkGOT7g6KlLM2CQwrpACn_HWYV0kYwD86XyZGBQC8zfTUw_nDcf8Q3aS9AGv2dywnJTOlf5LLtIKxv9CY0zlseOH5twUWSSePIzm_IZMTa5a3NcvpypddlKwEDV5rumMyw5YJdpsLE0UVc8sdmMmgLM3mFm00]--></g></svg>
