<svg xmlns="http://www.w3.org/2000/svg" xmlns:xlink="http://www.w3.org/1999/xlink" contentStyleType="text/css" data-diagram-type="CLASS" height="437px" preserveAspectRatio="none" style="width:865px;height:437px;background:#FFFFFF;" version="1.1" viewBox="0 0 865 437" width="865px" zoomAndPan="magnify"><defs/><g><!--class ConceptScheme--><g class="entity" data-entity="ConceptScheme" data-source-line="5" data-uid="ent0002" id="entity_ConceptScheme"><rect fill="#F1F1F1" height="29.0679" rx="2.5" ry="2.5" style="stroke:#181818;stroke-width:0.5;" width="115.8296" x="119.26" y="133"/><text fill="#000000" font-family="sans-serif" font-size="14" lengthAdjust="spacing" textLength="109.8296" x="122.26" y="152.9659">Concept Scheme</text></g><!--class Bundle--><g class="entity" data-entity="Bundle" data-source-line="6" data-uid="ent0003" id="entity_Bundle"><rect fill="#F1F1F1" height="29.0679" rx="2.5" ry="2.5" style="stroke:#181818;stroke-width:0.5;" width="110.4116" x="404.26" y="133"/><text fill="#000000" font-family="sans-serif" font-size="14" lengthAdjust="spacing" textLength="104.4116" x="407.26" y="152.9659">Concept Bundle</text></g><!--class Concept--><g class="entity" data-entity="Concept" data-source-line="8" data-uid="ent0004" id="entity_Concept"><rect fill="#F1F1F1" height="29.0679" rx="2.5" ry="2.5" style="stroke:#181818;stroke-width:0.5;" width="60.2498" x="292.26" y="294"/><text fill="#000000" font-family="sans-serif" font-size="14" lengthAdjust="spacing" textLength="54.2498" x="295.26" y="313.9659">Concept</text></g><!--class Mapping--><g class="entity" data-entity="Mapping" data-source-line="13" data-uid="ent0009" id="entity_Mapping"><rect fill="#F1F1F1" height="29.0679" rx="2.5" ry="2.5" style="stroke:#181818;stroke-width:0.5;" width="64.6458" x="607.76" y="402"/><text fill="#000000" font-family="sans-serif" font-size="14" lengthAdjust="spacing" textLength="58.6458" x="610.76" y="421.9659">Mapping</text></g><!--class Occurrence--><g class="entity" data-entity="Occurrence" data-source-line="14" data-uid="ent0011" id="entity_Occurrence"><rect fill="#F1F1F1" height="29.0679" rx="2.5" ry="2.5" style="stroke:#181818;stroke-width:0.5;" width="81.7537" x="268.26" y="402"/><text fill="#000000" font-family="sans-serif" font-size="14" lengthAdjust="spacing" textLength="75.7537" x="271.26" y="421.9659">Occurrence</text></g><!--class Registry--><g class="entity" data-entity="Registry" data-source-line="23" data-uid="ent0017" id="entity_Registry"><rect fill="#F1F1F1" height="29.0679" rx="2.5" ry="2.5" style="stroke:#181818;stroke-width:0.5;" width="59.5078" x="597.26" y="133"/><text fill="#000000" font-family="sans-serif" font-size="14" lengthAdjust="spacing" textLength="53.5078" x="600.26" y="152.9659">Registry</text></g><!--class Concordance--><g class="entity" data-entity="Concordance" data-source-line="27" data-uid="ent0021" id="entity_Concordance"><rect fill="#F1F1F1" height="29.0679" rx="2.5" ry="2.5" style="stroke:#181818;stroke-width:0.5;" width="92.6737" x="448.76" y="7"/><text fill="#000000" font-family="sans-serif" font-size="14" lengthAdjust="spacing" textLength="86.6737" x="451.76" y="26.9659">Concordance</text></g><!--link ConceptScheme to Concept--><g class="link" data-entity-1="ConceptScheme" data-entity-2="Concept" data-source-line="8" data-uid="lnk5" id="link_ConceptScheme_Concept"><path codeLine="8" d="M189.05,162.28 C196.05,170.67 204.96,181.73 212.26,192 C234.13,222.75 231,236.9 257.26,264 C268.79,275.9 278.9469,283.2566 291.8069,290.9266" fill="none" id="ConceptScheme-to-Concept" style="stroke:#181818;stroke-width:1;"/><polygon fill="#181818" points="296.96,294,291.2793,285.9545,292.6658,291.4388,287.1815,292.8253,296.96,294" style="stroke:#181818;stroke-width:1;"/><text fill="#000000" font-family="sans-serif" font-size="13" lengthAdjust="spacing" textLength="59.4621" x="258.338" y="224.397">concepts/</text><text fill="#000000" font-family="sans-serif" font-size="13" lengthAdjust="spacing" textLength="59.6181" x="258.26" y="242.103">inScheme</text></g><!--link ConceptScheme to Concept--><g class="link" data-entity-1="ConceptScheme" data-entity-2="Concept" data-source-line="9" data-uid="lnk6" id="link_ConceptScheme_Concept"><path codeLine="9" d="M118.96,152.92 C92.57,158.19 63.67,169.21 47.26,192 C28.57,217.97 26.48,239.67 47.26,264 C78.5,300.57 221.3505,306.4903 286.0805,307.3503" fill="none" id="ConceptScheme-to-Concept-1" style="stroke:#181818;stroke-width:1;"/><polygon fill="#181818" points="292.08,307.43,283.1339,303.3108,287.0804,307.3636,283.0277,311.3101,292.08,307.43" style="stroke:#181818;stroke-width:1;"/><text fill="#000000" font-family="sans-serif" font-size="13" lengthAdjust="spacing" textLength="81.9911" x="50.041" y="224.397">topConcepts/</text><text fill="#000000" font-family="sans-serif" font-size="13" lengthAdjust="spacing" textLength="85.5531" x="48.26" y="242.103">topConceptOf</text></g><!--link ConceptScheme to Concept--><g class="link" data-entity-1="ConceptScheme" data-entity-2="Concept" data-source-line="10" data-uid="lnk7" id="link_ConceptScheme_Concept"><path codeLine="10" d="M171.23,162.24 C161.96,185.69 147.53,233.84 170.26,264 C184.89,283.4 246.0254,295.8221 286.0254,302.2221" fill="none" id="ConceptScheme-to-Concept-2" style="stroke:#181818;stroke-width:1;"/><polygon fill="#181818" points="291.95,303.17,283.695,297.7983,287.0128,302.38,282.4311,305.6978,291.95,303.17" style="stroke:#181818;stroke-width:1;"/><text fill="#000000" font-family="sans-serif" font-size="13" lengthAdjust="spacing" textLength="32.877" x="171.26" y="233.397">types</text></g><!--reverse link Bundle to Concept--><g class="link" data-entity-1="Bundle" data-entity-2="Concept" data-source-line="12" data-uid="lnk8" id="link_Bundle_Concept"><path codeLine="12" d="M387.4638,168.4822 C370.4138,175.0522 369.67,178.17 357.26,192 C330.83,221.48 324.35,270.39 322.77,293.97" fill="none" id="Bundle-backto-Concept" style="stroke:#181818;stroke-width:1;"/><polygon fill="none" points="404.26,162.01,385.3065,162.8835,389.6212,174.0809,404.26,162.01" style="stroke:#181818;stroke-width:1;"/></g><!--link Bundle to Concept--><g class="link" data-entity-1="Bundle" data-entity-2="Concept" data-source-line="16" data-uid="lnk13" id="link_Bundle_Concept"><path codeLine="16" d="M430.16,162.19 C416.75,169.58 401.39,179.72 390.26,192 C366.25,218.52 372.93,233.48 354.26,264 C347.9,274.4 343.423,280.7057 336.943,289.0757" fill="none" id="Bundle-to-Concept" style="stroke:#181818;stroke-width:1;"/><polygon fill="#181818" points="333.27,293.82,341.9425,289.1522,336.3309,289.8664,335.6167,284.2548,333.27,293.82" style="stroke:#181818;stroke-width:1;"/><text fill="#000000" font-family="sans-serif" font-size="13" lengthAdjust="spacing" textLength="71.5001" x="402.1995" y="206.897">memberSet</text><text fill="#000000" font-family="sans-serif" font-size="13" lengthAdjust="spacing" textLength="73.4241" x="401.2375" y="224.603">memberList</text><text fill="#000000" font-family="sans-serif" font-size="13" lengthAdjust="spacing" textLength="93.3791" x="391.26" y="242.309">memberChoice</text><text fill="#000000" font-family="sans-serif" font-size="13" lengthAdjust="spacing" textLength="85.2021" x="395.3485" y="260.0151">memberRoles</text></g><!--reverse link Bundle to Mapping--><g class="link" data-entity-1="Bundle" data-entity-2="Mapping" data-source-line="13" data-uid="lnk10" id="link_Bundle_Mapping"><path codeLine="13" d="M502.4539,170.8956 C515.6139,178.3656 515.22,179.74 526.26,192 C557.39,226.55 615.89,358.92 634.45,401.92" fill="none" id="Bundle-backto-Mapping" style="stroke:#181818;stroke-width:1;"/><polygon fill="none" points="486.8,162.01,499.4921,176.1136,505.4158,165.6777,486.8,162.01" style="stroke:#181818;stroke-width:1;"/></g><!--reverse link Bundle to Occurrence--><g class="link" data-entity-1="Bundle" data-entity-2="Occurrence" data-source-line="14" data-uid="lnk12" id="link_Bundle_Occurrence"><path codeLine="14" d="M483.3375,176.1682 C489.8875,184.1982 485.83,180.96 489.26,192 C513.05,268.38 538.74,309.14 489.26,372 C472.31,393.54 398.1,405.68 350.41,411.39" fill="none" id="Bundle-backto-Occurrence" style="stroke:#181818;stroke-width:1;"/><polygon fill="none" points="471.96,162.22,478.688,179.9607,487.9869,172.3758,471.96,162.22" style="stroke:#181818;stroke-width:1;"/></g><!--link Concept to Mapping--><g class="link" data-entity-1="Concept" data-entity-2="Mapping" data-source-line="18" data-uid="lnk14" id="link_Concept_Mapping"><path codeLine="18" d="M352.33,321.14 C386.33,334.15 443.44,355.54 493.26,372 C532.31,384.9 571.9945,396.4441 601.9045,404.8641" fill="none" id="Concept-to-Mapping" style="stroke:#181818;stroke-width:1;"/><polygon fill="#181818" points="607.68,406.49,600.1006,400.2009,602.8671,405.1351,597.9328,407.9015,607.68,406.49" style="stroke:#181818;stroke-width:1;"/><text fill="#000000" font-family="sans-serif" font-size="13" lengthAdjust="spacing" textLength="61.0481" x="494.26" y="367.897">mappings</text></g><!--link Concept to Occurrence--><g class="link" data-entity-1="Concept" data-entity-2="Occurrence" data-source-line="19" data-uid="lnk15" id="link_Concept_Occurrence"><path codeLine="19" d="M315.78,323.26 C312.19,331.64 308.1,342.7 306.26,353 C303.29,369.68 304.2069,383.301 306.0369,396.041" fill="none" id="Concept-to-Occurrence" style="stroke:#181818;stroke-width:1;"/><polygon fill="#181818" points="306.89,401.98,309.5697,392.5027,306.1791,397.0308,301.651,393.6402,306.89,401.98" style="stroke:#181818;stroke-width:1;"/><text fill="#000000" font-family="sans-serif" font-size="13" lengthAdjust="spacing" textLength="74.2821" x="307.26" y="367.897">occurrences</text></g><!--link Occurrence to ConceptScheme--><g class="link" data-entity-1="Occurrence" data-entity-2="ConceptScheme" data-source-line="21" data-uid="lnk16" id="link_Occurrence_ConceptScheme"><path codeLine="21" d="M268.12,407.46 C203.08,392.29 78.45,352.65 25.26,264 C8.8,236.56 6,217.55 25.26,192 C36.83,176.66 75.3098,166.2326 113.1498,158.8926" fill="none" id="Occurrence-to-ConceptScheme" style="stroke:#181818;stroke-width:1;"/><polygon fill="#181818" points="119.04,157.75,109.443,155.537,114.1315,158.7021,110.9664,163.3906,119.04,157.75" style="stroke:#181818;stroke-width:1;"/><text fill="#000000" font-family="sans-serif" font-size="13" lengthAdjust="spacing" textLength="53.547" x="77.26" y="313.897">schemes</text></g><!--link Registry to Concept--><g class="link" data-entity-1="Registry" data-entity-2="Concept" data-source-line="23" data-uid="lnk18" id="link_Registry_Concept"><path codeLine="23" d="M615.46,162.2 C593.76,186.48 545.02,237.04 493.26,264 C447.48,287.85 393.8324,298.3207 358.4324,303.2607" fill="none" id="Registry-to-Concept" style="stroke:#181818;stroke-width:1;"/><polygon fill="#181818" points="352.49,304.09,361.9565,306.8077,357.442,303.399,360.8508,298.8845,352.49,304.09" style="stroke:#181818;stroke-width:1;"/><text fill="#000000" font-family="sans-serif" font-size="13" lengthAdjust="spacing" textLength="54.6261" x="591.7125" y="206.897">concepts</text><text fill="#000000" font-family="sans-serif" font-size="13" lengthAdjust="spacing" textLength="53.547" x="592.252" y="224.603">schemes</text><text fill="#000000" font-family="sans-serif" font-size="13" lengthAdjust="spacing" textLength="32.877" x="602.587" y="242.309">types</text><text fill="#000000" font-family="sans-serif" font-size="13" lengthAdjust="spacing" textLength="63.5311" x="587.26" y="260.0151">properties</text></g><!--link Registry to Mapping--><g class="link" data-entity-1="Registry" data-entity-2="Mapping" data-source-line="24" data-uid="lnk19" id="link_Registry_Mapping"><path codeLine="24" d="M640.79,162.08 C647.77,170.06 655.58,180.78 659.26,192 C684.28,268.22 658.61,360.7921 646.9,396.2821" fill="none" id="Registry-to-Mapping" style="stroke:#181818;stroke-width:1;"/><polygon fill="#181818" points="645.02,401.98,651.6386,394.6866,646.5867,397.2318,644.0415,392.1799,645.02,401.98" style="stroke:#181818;stroke-width:1;"/><text fill="#000000" font-family="sans-serif" font-size="13" lengthAdjust="spacing" textLength="61.0481" x="668.26" y="313.897">mappings</text></g><!--link Registry to Registry--><g class="link" data-entity-1="Registry" data-entity-2="Registry" data-source-line="25" data-uid="lnk20" id="link_Registry_Registry"><path codeLine="25" d="M657.35,136.6 C675.34,134.18 692.26,137.81 692.26,147.5 C692.26,157.19 681.2864,161.6199 663.2964,159.1999" fill="none" id="Registry-to-Registry" style="stroke:#181818;stroke-width:1;"/><polygon fill="#181818" points="657.35,158.4,665.7364,163.5642,662.3054,159.0666,666.8029,155.6356,657.35,158.4" style="stroke:#181818;stroke-width:1;"/><text fill="#000000" font-family="sans-serif" font-size="13" lengthAdjust="spacing" textLength="57.252" x="698.26" y="152.897">registries</text></g><!--link Concordance to Mapping--><g class="link" data-entity-1="Concordance" data-entity-2="Mapping" data-source-line="27" data-uid="lnk22" id="link_Concordance_Mapping"><path codeLine="27" d="M542.02,26.52 C604.48,34.68 712.99,59.28 762.26,133 C786.32,168.99 839.38,129.3 738.26,323 C720.4,357.22 689.7801,382.3404 666.7701,398.3004" fill="none" id="Concordance-to-Mapping" style="stroke:#181818;stroke-width:1;"/><polygon fill="#181818" points="661.84,401.72,671.515,399.8774,665.9485,398.8703,666.9555,393.3038,661.84,401.72" style="stroke:#181818;stroke-width:1;"/><text fill="#000000" font-family="sans-serif" font-size="13" lengthAdjust="spacing" textLength="61.0481" x="796.26" y="233.397">mappings</text></g><!--link Concordance to ConceptScheme--><g class="link" data-entity-1="Concordance" data-entity-2="ConceptScheme" data-source-line="28" data-uid="lnk23" id="link_Concordance_ConceptScheme"><path codeLine="28" d="M460.63,36.01 C399.62,59.8 279.2501,106.7303 217.9301,130.6403" fill="none" id="Concordance-to-ConceptScheme" style="stroke:#181818;stroke-width:1;"/><polygon fill="#181818" points="212.34,132.82,222.1782,133.2772,216.9984,131.0036,219.272,125.8237,212.34,132.82" style="stroke:#181818;stroke-width:1;"/><text fill="#000000" font-family="sans-serif" font-size="13" lengthAdjust="spacing" textLength="78.0911" x="384.26" y="80.897">fromScheme</text><text fill="#000000" font-family="sans-serif" font-size="13" lengthAdjust="spacing" textLength="60.7881" x="392.9115" y="98.603">toScheme</text></g><!--SRC=[VLAxRiCm3Dpr5OHtexjHTAZN5W6IrOihqv40wm5A6GBquoj5icmPJROxyaWUAGav8IZqmaoEYKYu9BvW9hF49IGONqRdeEcDvcWzNBX0XGsC3d8eHOwwpvkUbgHBaB5A3stxiNQ03XgUe7iRjDHvoEiARso_5MtiDBykz7SRTcJ95Rp_jksQh6BVexLINwlOYVCR4GPngJ-OKgX-a2xe1vtWbtG5zy98ZYixct3hffpbqIaF3PrKGgvAR_E3mXGIjjbbTexo_Xsu1mYwCrw38Re_E_-WipHSDDvfq9QCHV8oUgsg__5QvGlfW1AKqK4SQcWQLwjFLjvBZjiqCncLM7pu_5l-0000]--></g></svg>