<svg xmlns="http://www.w3.org/2000/svg" xmlns:xlink="http://www.w3.org/1999/xlink" contentStyleType="text/css" data-diagram-type="CLASS" height="437px" preserveAspectRatio="none" style="width:1009px;height:437px;background:#FFFFFF;" version="1.1" viewBox="0 0 1009 437" width="1009px" zoomAndPan="magnify"><defs/><g><!--class ConceptScheme--><g class="entity" data-entity="ConceptScheme" data-source-line="5" data-uid="ent0002" id="entity_ConceptScheme"><rect fill="#F1F1F1" height="29.0679" rx="2.5" ry="2.5" style="stroke:#181818;stroke-width:0.5;" width="115.8296" x="234.5" y="133"/><text fill="#000000" font-family="sans-serif" font-size="14" lengthAdjust="spacing" textLength="109.8296" x="237.5" y="152.9659">Concept Scheme</text></g><!--class Bundle--><g class="entity" data-entity="Bundle" data-source-line="6" data-uid="ent0003" id="entity_Bundle"><rect fill="#F1F1F1" height="29.0679" rx="2.5" ry="2.5" style="stroke:#181818;stroke-width:0.5;" width="110.4116" x="541.5" y="133"/><text fill="#000000" font-family="sans-serif" font-size="14" lengthAdjust="spacing" textLength="104.4116" x="544.5" y="152.9659">Concept Bundle</text></g><!--class Concept--><g class="entity" data-entity="Concept" data-source-line="8" data-uid="ent0004" id="entity_Concept"><rect fill="#F1F1F1" height="29.0679" rx="2.5" ry="2.5" style="stroke:#181818;stroke-width:0.5;" width="60.2498" x="447.5" y="294"/><text fill="#000000" font-family="sans-serif" font-size="14" lengthAdjust="spacing" textLength="54.2498" x="450.5" y="313.9659">Concept</text></g><!--class Mapping--><g class="entity" data-entity="Mapping" data-source-line="13" data-uid="ent0009" id="entity_Mapping"><rect fill="#F1F1F1" height="29.0679" rx="2.5" ry="2.5" style="stroke:#181818;stroke-width:0.5;" width="64.6458" x="763" y="402"/><text fill="#000000" font-family="sans-serif" font-size="14" lengthAdjust="spacing" textLength="58.6458" x="766" y="421.9659">Mapping</text></g><!--class Occurrence--><g class="entity" data-entity="Occurrence" data-source-line="14" data-uid="ent0011" id="entity_Occurrence"><rect fill="#F1F1F1" height="29.0679" rx="2.5" ry="2.5" style="stroke:#181818;stroke-width:0.5;" width="81.7537" x="423.5" y="402"/><text fill="#000000" font-family="sans-serif" font-size="14" lengthAdjust="spacing" textLength="75.7537" x="426.5" y="421.9659">Occurrence</text></g><!--class Registry--><g class="entity" data-entity="Registry" data-source-line="23" data-uid="ent0017" id="entity_Registry"><rect fill="#F1F1F1" height="29.0679" rx="2.5" ry="2.5" style="stroke:#181818;stroke-width:0.5;" width="59.5078" x="735.5" y="133"/><text fill="#000000" font-family="sans-serif" font-size="14" lengthAdjust="spacing" textLength="53.5078" x="738.5" y="152.9659">Registry</text></g><!--class Concordance--><g class="entity" data-entity="Concordance" data-source-line="27" data-uid="ent0021" id="entity_Concordance"><rect fill="#F1F1F1" height="29.0679" rx="2.5" ry="2.5" style="stroke:#181818;stroke-width:0.5;" width="92.6737" x="345" y="7"/><text fill="#000000" font-family="sans-serif" font-size="14" lengthAdjust="spacing" textLength="86.6737" x="348" y="26.9659">Concordance</text></g><!--class Dataset--><g class="entity" data-entity="Dataset" data-source-line="30" data-uid="ent0024" id="entity_Dataset"><rect fill="#F1F1F1" height="29.0679" rx="2.5" ry="2.5" style="stroke:#181818;stroke-width:0.5;" width="56.6378" x="253" y="7"/><text fill="#000000" font-family="sans-serif" font-size="14" lengthAdjust="spacing" textLength="50.6378" x="256" y="26.9659">Dataset</text></g><!--class Service--><g class="entity" data-entity="Service" data-source-line="34" data-uid="ent0028" id="entity_Service"><rect fill="#F1F1F1" height="29.0679" rx="2.5" ry="2.5" style="stroke:#181818;stroke-width:0.5;" width="52.7038" x="7" y="294"/><text fill="#000000" font-family="sans-serif" font-size="14" lengthAdjust="spacing" textLength="46.7038" x="10" y="313.9659">Service</text></g><!--class Distribution--><g class="entity" data-entity="Distribution" data-source-line="35" data-uid="ent0030" id="entity_Distribution"><rect fill="#F1F1F1" height="29.0679" rx="2.5" ry="2.5" style="stroke:#181818;stroke-width:0.5;" width="84.0357" x="108.5" y="133"/><text fill="#000000" font-family="sans-serif" font-size="14" lengthAdjust="spacing" textLength="78.0357" x="111.5" y="152.9659">Distribution</text></g><!--link ConceptScheme to Concept--><g class="link" data-entity-1="ConceptScheme" data-entity-2="Concept" data-source-line="8" data-uid="lnk5" id="link_ConceptScheme_Concept"><path codeLine="8" d="M240.41,162.11 C225.61,168.65 211.17,178.18 202.5,192 C185.49,219.11 181.72,239.67 202.5,264 C233.74,300.57 376.5805,306.4903 441.3205,307.3503" fill="none" id="ConceptScheme-to-Concept" style="stroke:#181818;stroke-width:1;"/><polygon fill="#181818" points="447.32,307.43,438.3739,303.3108,442.3204,307.3636,438.2677,311.3101,447.32,307.43" style="stroke:#181818;stroke-width:1;"/><text fill="#000000" font-family="sans-serif" font-size="13" lengthAdjust="spacing" textLength="59.4621" x="203.578" y="224.397">concepts/</text><text fill="#000000" font-family="sans-serif" font-size="13" lengthAdjust="spacing" textLength="59.6181" x="203.5" y="242.103">inScheme</text></g><!--link ConceptScheme to Concept--><g class="link" data-entity-1="ConceptScheme" data-entity-2="Concept" data-source-line="9" data-uid="lnk6" id="link_ConceptScheme_Concept"><path codeLine="9" d="M289.26,162.16 C284.51,185.94 278.67,235.14 303.5,264 C322.03,285.54 396.6173,297.7279 441.3373,303.3779" fill="none" id="ConceptScheme-to-Concept-1" style="stroke:#181818;stroke-width:1;"/><polygon fill="#181818" points="447.29,304.13,438.8624,299.0334,442.3294,303.5033,437.8596,306.9703,447.29,304.13" style="stroke:#181818;stroke-width:1;"/><text fill="#000000" font-family="sans-serif" font-size="13" lengthAdjust="spacing" textLength="81.9911" x="306.281" y="224.397">topConcepts/</text><text fill="#000000" font-family="sans-serif" font-size="13" lengthAdjust="spacing" textLength="85.5531" x="304.5" y="242.103">topConceptOf</text></g><!--link ConceptScheme to Concept--><g class="link" data-entity-1="ConceptScheme" data-entity-2="Concept" data-source-line="10" data-uid="lnk7" id="link_ConceptScheme_Concept"><path codeLine="10" d="M339.96,162.03 C358.38,168.9 378.78,178.69 394.5,192 C423.48,216.54 417.92,233.47 440.5,264 C448.16,274.36 453.5998,280.9302 461.0198,289.3002" fill="none" id="ConceptScheme-to-Concept-2" style="stroke:#181818;stroke-width:1;"/><polygon fill="#181818" points="465,293.79,462.0229,284.4019,461.6832,290.0485,456.0365,289.7088,465,293.79" style="stroke:#181818;stroke-width:1;"/><text fill="#000000" font-family="sans-serif" font-size="13" lengthAdjust="spacing" textLength="32.877" x="441.5" y="233.397">types</text></g><!--reverse link Bundle to Concept--><g class="link" data-entity-1="Bundle" data-entity-2="Concept" data-source-line="12" data-uid="lnk8" id="link_Bundle_Concept"><path codeLine="12" d="M538.8074,169.3663 C523.5074,176.2063 523.63,178.61 512.5,192 C487.32,222.29 480.25,270.38 478.27,293.79" fill="none" id="Bundle-backto-Concept" style="stroke:#181818;stroke-width:1;"/><polygon fill="none" points="555.24,162.02,536.3586,163.8888,541.2562,174.8439,555.24,162.02" style="stroke:#181818;stroke-width:1;"/></g><!--link Bundle to Concept--><g class="link" data-entity-1="Bundle" data-entity-2="Concept" data-source-line="16" data-uid="lnk13" id="link_Bundle_Concept"><path codeLine="16" d="M576.9,162.21 C566.64,170.08 554.39,180.64 545.5,192 C523.45,220.17 528.17,233.48 509.5,264 C503.14,274.4 498.6666,280.7084 492.1766,289.0784" fill="none" id="Bundle-to-Concept" style="stroke:#181818;stroke-width:1;"/><polygon fill="#181818" points="488.5,293.82,497.1759,289.1587,491.5638,289.8687,490.8538,284.2565,488.5,293.82" style="stroke:#181818;stroke-width:1;"/><text fill="#000000" font-family="sans-serif" font-size="13" lengthAdjust="spacing" textLength="71.5001" x="557.4395" y="206.897">memberSet</text><text fill="#000000" font-family="sans-serif" font-size="13" lengthAdjust="spacing" textLength="73.4241" x="556.4775" y="224.603">memberList</text><text fill="#000000" font-family="sans-serif" font-size="13" lengthAdjust="spacing" textLength="93.3791" x="546.5" y="242.309">memberChoice</text><text fill="#000000" font-family="sans-serif" font-size="13" lengthAdjust="spacing" textLength="85.2021" x="550.5885" y="260.0151">memberRoles</text></g><!--reverse link Bundle to Mapping--><g class="link" data-entity-1="Bundle" data-entity-2="Mapping" data-source-line="13" data-uid="lnk10" id="link_Bundle_Mapping"><path codeLine="13" d="M653.235,169.3723 C669.275,176.3523 670.48,178.99 683.5,192 C716.28,224.75 772.28,358.32 789.97,401.77" fill="none" id="Bundle-backto-Mapping" style="stroke:#181818;stroke-width:1;"/><polygon fill="none" points="636.73,162.19,650.8409,174.874,655.6291,163.8707,636.73,162.19" style="stroke:#181818;stroke-width:1;"/></g><!--reverse link Bundle to Occurrence--><g class="link" data-entity-1="Bundle" data-entity-2="Occurrence" data-source-line="14" data-uid="lnk12" id="link_Bundle_Occurrence"><path codeLine="14" d="M632.7578,172.8462 C642.7078,180.3262 639.08,179.77 644.5,192 C676.92,265.14 693.98,309.14 644.5,372 C627.55,393.54 553.33,405.68 505.65,411.39" fill="none" id="Bundle-backto-Occurrence" style="stroke:#181818;stroke-width:1;"/><polygon fill="none" points="618.37,162.03,629.1524,177.6421,636.3632,168.0502,618.37,162.03" style="stroke:#181818;stroke-width:1;"/></g><!--link Concept to Mapping--><g class="link" data-entity-1="Concept" data-entity-2="Mapping" data-source-line="18" data-uid="lnk14" id="link_Concept_Mapping"><path codeLine="18" d="M507.57,321.14 C541.57,334.15 598.68,355.54 648.5,372 C687.54,384.9 727.2245,396.4441 757.1345,404.8641" fill="none" id="Concept-to-Mapping" style="stroke:#181818;stroke-width:1;"/><polygon fill="#181818" points="762.91,406.49,755.3306,400.2009,758.0971,405.1351,753.1628,407.9015,762.91,406.49" style="stroke:#181818;stroke-width:1;"/><text fill="#000000" font-family="sans-serif" font-size="13" lengthAdjust="spacing" textLength="61.0481" x="649.5" y="367.897">mappings</text></g><!--link Concept to Occurrence--><g class="link" data-entity-1="Concept" data-entity-2="Occurrence" data-source-line="19" data-uid="lnk15" id="link_Concept_Occurrence"><path codeLine="19" d="M471.02,323.26 C467.43,331.64 463.33,342.7 461.5,353 C458.53,369.68 459.4369,383.301 461.2669,396.041" fill="none" id="Concept-to-Occurrence" style="stroke:#181818;stroke-width:1;"/><polygon fill="#181818" points="462.12,401.98,464.7997,392.5027,461.4091,397.0308,456.881,393.6402,462.12,401.98" style="stroke:#181818;stroke-width:1;"/><text fill="#000000" font-family="sans-serif" font-size="13" lengthAdjust="spacing" textLength="74.2821" x="462.5" y="367.897">occurrences</text></g><!--link Occurrence to ConceptScheme--><g class="link" data-entity-1="Occurrence" data-entity-2="ConceptScheme" data-source-line="21" data-uid="lnk16" id="link_Occurrence_ConceptScheme"><path codeLine="21" d="M423.48,407.57 C358.29,392.51 232.97,352.98 179.5,264 C163.02,236.57 161.39,218.38 179.5,192 C192.05,173.72 207.6958,164.8197 228.5158,158.6697" fill="none" id="Occurrence-to-ConceptScheme" style="stroke:#181818;stroke-width:1;"/><polygon fill="#181818" points="234.27,156.97,224.5055,155.6835,229.4748,158.3864,226.7718,163.3557,234.27,156.97" style="stroke:#181818;stroke-width:1;"/><text fill="#000000" font-family="sans-serif" font-size="13" lengthAdjust="spacing" textLength="53.547" x="230.5" y="313.897">schemes</text></g><!--link Registry to Concept--><g class="link" data-entity-1="Registry" data-entity-2="Concept" data-source-line="23" data-uid="lnk18" id="link_Registry_Concept"><path codeLine="23" d="M755.6,162.26 C737.3,186.63 695.72,237.34 648.5,264 C603.42,289.45 549.2948,299.5246 513.6648,303.9246" fill="none" id="Registry-to-Concept" style="stroke:#181818;stroke-width:1;"/><polygon fill="#181818" points="507.71,304.66,517.1324,307.5268,512.6723,304.0472,516.1519,299.5871,507.71,304.66" style="stroke:#181818;stroke-width:1;"/><text fill="#000000" font-family="sans-serif" font-size="13" lengthAdjust="spacing" textLength="54.6261" x="735.9525" y="206.897">concepts</text><text fill="#000000" font-family="sans-serif" font-size="13" lengthAdjust="spacing" textLength="53.547" x="736.492" y="224.603">schemes</text><text fill="#000000" font-family="sans-serif" font-size="13" lengthAdjust="spacing" textLength="32.877" x="746.827" y="242.309">types</text><text fill="#000000" font-family="sans-serif" font-size="13" lengthAdjust="spacing" textLength="63.5311" x="731.5" y="260.0151">properties</text></g><!--link Registry to Mapping--><g class="link" data-entity-1="Registry" data-entity-2="Mapping" data-source-line="24" data-uid="lnk19" id="link_Registry_Mapping"><path codeLine="24" d="M782.3,162.36 C790.37,170.13 799.2,180.55 803.5,192 C831.6,266.88 810.8806,360.1819 801.0906,396.0319" fill="none" id="Registry-to-Mapping" style="stroke:#181818;stroke-width:1;"/><polygon fill="#181818" points="799.51,401.82,805.7396,394.1917,800.8272,396.9966,798.0222,392.0842,799.51,401.82" style="stroke:#181818;stroke-width:1;"/><text fill="#000000" font-family="sans-serif" font-size="13" lengthAdjust="spacing" textLength="61.0481" x="817.5" y="313.897">mappings</text></g><!--link Registry to Registry--><g class="link" data-entity-1="Registry" data-entity-2="Registry" data-source-line="25" data-uid="lnk20" id="link_Registry_Registry"><path codeLine="25" d="M795.59,136.6 C813.57,134.18 830.5,137.81 830.5,147.5 C830.5,157.19 819.5164,161.6203 801.5364,159.2003" fill="none" id="Registry-to-Registry" style="stroke:#181818;stroke-width:1;"/><polygon fill="#181818" points="795.59,158.4,803.976,163.5648,800.5453,159.067,805.0431,155.6363,795.59,158.4" style="stroke:#181818;stroke-width:1;"/><text fill="#000000" font-family="sans-serif" font-size="13" lengthAdjust="spacing" textLength="57.252" x="836.5" y="152.897">registries</text></g><!--link Concordance to Mapping--><g class="link" data-entity-1="Concordance" data-entity-2="Mapping" data-source-line="27" data-uid="lnk22" id="link_Concordance_Mapping"><path codeLine="27" d="M438.38,25.41 C553.05,33.59 842.54,61.11 900.5,133 C923,160.91 994.47,90.77 887.5,323 C871.77,357.15 842.6112,382.3793 820.6412,398.3693" fill="none" id="Concordance-to-Mapping" style="stroke:#181818;stroke-width:1;"/><polygon fill="#181818" points="815.79,401.9,825.4206,399.838,819.8326,398.9577,820.7129,393.3698,815.79,401.9" style="stroke:#181818;stroke-width:1;"/><text fill="#000000" font-family="sans-serif" font-size="13" lengthAdjust="spacing" textLength="61.0481" x="940.5" y="233.397">mappings</text></g><!--link Concordance to ConceptScheme--><g class="link" data-entity-1="Concordance" data-entity-2="ConceptScheme" data-source-line="28" data-uid="lnk23" id="link_Concordance_ConceptScheme"><path codeLine="28" d="M380.53,36.24 C361.5,60.08 326.3351,104.1323 307.2651,128.0023" fill="none" id="Concordance-to-ConceptScheme" style="stroke:#181818;stroke-width:1;"/><polygon fill="#181818" points="303.52,132.69,312.2627,128.1552,306.6409,128.7836,306.0124,123.1617,303.52,132.69" style="stroke:#181818;stroke-width:1;"/><text fill="#000000" font-family="sans-serif" font-size="13" lengthAdjust="spacing" textLength="78.0911" x="357.5" y="80.897">fromScheme</text><text fill="#000000" font-family="sans-serif" font-size="13" lengthAdjust="spacing" textLength="60.7881" x="366.1515" y="98.603">toScheme</text></g><!--reverse link Dataset to Concordance--><g class="link" data-entity-1="Dataset" data-entity-2="Concordance" data-source-line="30" data-uid="lnk25" id="link_Dataset_Concordance"><path codeLine="30" d="M328.29,21.5 C339.82,21.5 333.34,21.5 344.87,21.5" fill="none" id="Dataset-backto-Concordance" style="stroke:#181818;stroke-width:1;"/><polygon fill="none" points="310.29,21.5,328.29,27.5,328.29,15.5,310.29,21.5" style="stroke:#181818;stroke-width:1;"/></g><!--reverse link Dataset to Registry--><g class="link" data-entity-1="Dataset" data-entity-2="Registry" data-source-line="31" data-uid="lnk26" id="link_Dataset_Registry"><path codeLine="31" d="M297.9361,51.7201 C308.8561,70.4501 322.18,87.94 351.5,103 C414.64,135.43 599,124.72 669.5,133 C691.56,135.59 716.4,139.1 735.28,141.89" fill="none" id="Dataset-backto-Registry" style="stroke:#181818;stroke-width:1;"/><polygon fill="none" points="288.87,36.17,292.7527,54.7421,303.1194,48.6981,288.87,36.17" style="stroke:#181818;stroke-width:1;"/></g><!--reverse link Dataset to ConceptScheme--><g class="link" data-entity-1="Dataset" data-entity-2="ConceptScheme" data-source-line="32" data-uid="lnk27" id="link_Dataset_ConceptScheme"><path codeLine="32" d="M284.3069,54.1699 C286.4169,78.0099 289.16,108.82 291.28,132.69" fill="none" id="Dataset-backto-ConceptScheme" style="stroke:#181818;stroke-width:1;"/><polygon fill="none" points="282.72,36.24,278.3303,54.6989,290.2836,53.6409,282.72,36.24" style="stroke:#181818;stroke-width:1;"/></g><!--link Dataset to Service--><g class="link" data-entity-1="Dataset" data-entity-2="Service" data-source-line="34" data-uid="lnk29" id="link_Dataset_Service"><path codeLine="34" d="M252.72,25.74 C199.75,33.45 88,58.2 41.5,133 C9.32,184.77 21.3799,256.9762 28.6299,288.1262" fill="none" id="Dataset-to-Service" style="stroke:#181818;stroke-width:1;"/><polygon fill="#181818" points="29.99,293.97,31.8457,284.2975,28.8566,289.1002,24.054,286.111,29.99,293.97" style="stroke:#181818;stroke-width:1;"/><text fill="#000000" font-family="sans-serif" font-size="13" lengthAdjust="spacing" textLength="48.685" x="42.5" y="152.897">services</text></g><!--link Dataset to Distribution--><g class="link" data-entity-1="Dataset" data-entity-2="Distribution" data-source-line="35" data-uid="lnk31" id="link_Dataset_Distribution"><path codeLine="35" d="M252.92,32.55 C235.39,39.8 213.33,50.95 197.5,66 C177.09,85.4 164.984,110.0676 157.874,127.4276" fill="none" id="Dataset-to-Distribution" style="stroke:#181818;stroke-width:1;"/><polygon fill="#181818" points="155.6,132.98,162.7126,126.1675,157.495,128.353,155.3095,123.1354,155.6,132.98" style="stroke:#181818;stroke-width:1;"/><text fill="#000000" font-family="sans-serif" font-size="13" lengthAdjust="spacing" textLength="77.1941" x="198.5" y="89.897">distributions</text></g><!--link Distribution to Service--><g class="link" data-entity-1="Distribution" data-entity-2="Service" data-source-line="36" data-uid="lnk32" id="link_Distribution_Service"><path codeLine="36" d="M113.05,162.07 C98.34,169.03 82.4,178.87 71.5,192 C46.16,222.54 38.2522,264.5524 35.4622,287.8924" fill="none" id="Distribution-to-Service" style="stroke:#181818;stroke-width:1;"/><polygon fill="#181818" points="34.75,293.85,39.79,285.3884,35.3435,288.8853,31.8465,284.4389,34.75,293.85" style="stroke:#181818;stroke-width:1;"/><text fill="#000000" font-family="sans-serif" font-size="13" lengthAdjust="spacing" textLength="48.685" x="72.5" y="233.397">services</text></g><!--SRC=[VL8zRyCW4Dtv5SYxrTsgCjGPMqMALoy4dsCayo70bIBrnnSCnk0ssUxTUtVtxc1Y0s0ETfA3GPC7b6awGmGZWzaHYCx465orKb1G5dTq0WuL9WR7LCWSTH-B6EQW2o52XHxNzMdhW1jSqH2Qjrum4OUyhh1IjNlHZYxZwqBxK6v755pXzv-wtiWYzqMKOk9Uv2wKBbg34wVwWoaE_0Qw0zkB47uoa-9saep2XgxItRfAPraxnQ6k4m-HAUXzlbF81Dms6PCvYlitsAo1qrtXxWpfnxFpzo9AtKNzdNgXj5IWBVDUY-f_l1Py0WtM8MJUWHygzK0sgqzMpYN7RQfHInwGV_Zjjw0piSI0zM-5inv5Fhdwezw_SgByy0xqDriFRa9a2lgyBdPRB9F2QOOCEc5EFcds2m00]--></g></svg>