<svg xmlns="http://www.w3.org/2000/svg" xmlns:xlink="http://www.w3.org/1999/xlink" contentStyleType="text/css" data-diagram-type="CLASS" height="309px" preserveAspectRatio="none" style="width:592px;height:309px;background:#FFFFFF;" version="1.1" viewBox="0 0 592 309" width="592px" zoomAndPan="magnify"><defs/><g><!--class ConceptScheme--><g class="entity" data-entity="ConceptScheme" data-source-line="5" data-uid="ent0002" id="entity_ConceptScheme"><rect fill="#F1F1F1" height="29.0679" rx="2.5" ry="2.5" style="stroke:#181818;stroke-width:0.5;" width="115.8296" x="168" y="274"/><text fill="#000000" font-family="sans-serif" font-size="14" lengthAdjust="spacing" textLength="109.8296" x="171" y="293.9659">Concept Scheme</text></g><!--class Bundle--><g class="entity" data-entity="Bundle" data-source-line="6" data-uid="ent0003" id="entity_Bundle"><rect fill="#F1F1F1" height="29.0679" rx="2.5" ry="2.5" style="stroke:#181818;stroke-width:0.5;" width="110.4116" x="102" y="96"/><text fill="#000000" font-family="sans-serif" font-size="14" lengthAdjust="spacing" textLength="104.4116" x="105" y="115.9659">Concept Bundle</text></g><!--class Resource--><g class="entity" data-entity="Resource" data-source-line="8" data-uid="ent0004" id="entity_Resource"><rect fill="#F1F1F1" height="29.0679" rx="2.5" ry="2.5" style="stroke:#181818;stroke-width:0.5;" width="66.8298" x="123.5" y="7"/><text fill="#000000" font-family="sans-serif" font-size="14" lengthAdjust="spacing" textLength="60.8298" x="126.5" y="26.9659">Resource</text></g><!--class Item--><g class="entity" data-entity="Item" data-source-line="8" data-uid="ent0005" id="entity_Item"><rect fill="#F1F1F1" height="29.0679" rx="2.5" ry="2.5" style="stroke:#181818;stroke-width:0.5;" width="36.7859" x="288.5" y="96"/><text fill="#000000" font-family="sans-serif" font-size="14" lengthAdjust="spacing" textLength="30.7859" x="291.5" y="115.9659">Item</text></g><!--class Occurrence--><g class="entity" data-entity="Occurrence" data-source-line="9" data-uid="ent0007" id="entity_Occurrence"><rect fill="#F1F1F1" height="29.0679" rx="2.5" ry="2.5" style="stroke:#181818;stroke-width:0.5;" width="81.7537" x="7" y="185"/><text fill="#000000" font-family="sans-serif" font-size="14" lengthAdjust="spacing" textLength="75.7537" x="10" y="204.9659">Occurrence</text></g><!--class Dataset--><g class="entity" data-entity="Dataset" data-source-line="10" data-uid="ent0009" id="entity_Dataset"><rect fill="#F1F1F1" height="29.0679" rx="2.5" ry="2.5" style="stroke:#181818;stroke-width:0.5;" width="56.6378" x="320.5" y="185"/><text fill="#000000" font-family="sans-serif" font-size="14" lengthAdjust="spacing" textLength="50.6378" x="323.5" y="204.9659">Dataset</text></g><!--class Registry--><g class="entity" data-entity="Registry" data-source-line="11" data-uid="ent0011" id="entity_Registry"><rect fill="#F1F1F1" height="29.0679" rx="2.5" ry="2.5" style="stroke:#181818;stroke-width:0.5;" width="59.5078" x="319" y="274"/><text fill="#000000" font-family="sans-serif" font-size="14" lengthAdjust="spacing" textLength="53.5078" x="322" y="293.9659">Registry</text></g><!--class Concordance--><g class="entity" data-entity="Concordance" data-source-line="13" data-uid="ent0014" id="entity_Concordance"><rect fill="#F1F1F1" height="29.0679" rx="2.5" ry="2.5" style="stroke:#181818;stroke-width:0.5;" width="92.6737" x="414.5" y="274"/><text fill="#000000" font-family="sans-serif" font-size="14" lengthAdjust="spacing" textLength="86.6737" x="417.5" y="293.9659">Concordance</text></g><!--class Service--><g class="entity" data-entity="Service" data-source-line="15" data-uid="ent0016" id="entity_Service"><rect fill="#F1F1F1" height="29.0679" rx="2.5" ry="2.5" style="stroke:#181818;stroke-width:0.5;" width="52.7038" x="412.5" y="185"/><text fill="#000000" font-family="sans-serif" font-size="14" lengthAdjust="spacing" textLength="46.7038" x="415.5" y="204.9659">Service</text></g><!--class Distribution--><g class="entity" data-entity="Distribution" data-source-line="16" data-uid="ent0018" id="entity_Distribution"><rect fill="#F1F1F1" height="29.0679" rx="2.5" ry="2.5" style="stroke:#181818;stroke-width:0.5;" width="84.0357" x="501" y="185"/><text fill="#000000" font-family="sans-serif" font-size="14" lengthAdjust="spacing" textLength="78.0357" x="504" y="204.9659">Distribution</text></g><!--class Concept--><g class="entity" data-entity="Concept" data-source-line="17" data-uid="ent0020" id="entity_Concept"><rect fill="#F1F1F1" height="29.0679" rx="2.5" ry="2.5" style="stroke:#181818;stroke-width:0.5;" width="60.2498" x="225" y="185"/><text fill="#000000" font-family="sans-serif" font-size="14" lengthAdjust="spacing" textLength="54.2498" x="228" y="204.9659">Concept</text></g><!--class Mapping--><g class="entity" data-entity="Mapping" data-source-line="18" data-uid="ent0022" id="entity_Mapping"><rect fill="#F1F1F1" height="29.0679" rx="2.5" ry="2.5" style="stroke:#181818;stroke-width:0.5;" width="64.6458" x="124.5" y="185"/><text fill="#000000" font-family="sans-serif" font-size="14" lengthAdjust="spacing" textLength="58.6458" x="127.5" y="204.9659">Mapping</text></g><!--reverse link Resource to Item--><g class="link" data-entity-1="Resource" data-entity-2="Item" data-source-line="8" data-uid="lnk6" id="link_Resource_Item"><path codeLine="8" d="M196.0109,45.1204 C225.8409,62.4204 261.18,82.93 288.46,98.74" fill="none" id="Resource-backto-Item" style="stroke:#181818;stroke-width:1;"/><polygon fill="none" points="180.44,36.09,193.0008,50.3107,199.021,39.9301,180.44,36.09" style="stroke:#181818;stroke-width:1;"/></g><!--reverse link Resource to Occurrence--><g class="link" data-entity-1="Resource" data-entity-2="Occurrence" data-source-line="9" data-uid="lnk8" id="link_Resource_Occurrence"><path codeLine="9" d="M125.5789,47.7475 C109.2089,61.3575 99,72.08 84,96 C65.87,124.93 55.38,164.19 50.79,184.71" fill="none" id="Resource-backto-Occurrence" style="stroke:#181818;stroke-width:1;"/><polygon fill="none" points="139.42,36.24,121.743,43.1338,129.4147,52.3612,139.42,36.24" style="stroke:#181818;stroke-width:1;"/></g><!--reverse link Item to Dataset--><g class="link" data-entity-1="Item" data-entity-2="Dataset" data-source-line="10" data-uid="lnk10" id="link_Item_Dataset"><path codeLine="10" d="M321.3897,141.2979 C329.2397,157.5479 334.46,168.38 342.34,184.71" fill="none" id="Item-backto-Dataset" style="stroke:#181818;stroke-width:1;"/><polygon fill="none" points="313.56,125.09,315.987,143.9078,326.7923,138.688,313.56,125.09" style="stroke:#181818;stroke-width:1;"/></g><!--reverse link Dataset to Registry--><g class="link" data-entity-1="Dataset" data-entity-2="Registry" data-source-line="11" data-uid="lnk12" id="link_Dataset_Registry"><path codeLine="11" d="M349,232.09 C349,248.34 349,257.38 349,273.71" fill="none" id="Dataset-backto-Registry" style="stroke:#181818;stroke-width:1;"/><polygon fill="none" points="349,214.09,343,232.09,355,232.09,349,214.09" style="stroke:#181818;stroke-width:1;"/></g><!--reverse link Dataset to ConceptScheme--><g class="link" data-entity-1="Dataset" data-entity-2="ConceptScheme" data-source-line="12" data-uid="lnk13" id="link_Dataset_ConceptScheme"><path codeLine="12" d="M315.0854,224.4856 C292.1154,240.7356 268.58,257.38 245.49,273.71" fill="none" id="Dataset-backto-ConceptScheme" style="stroke:#181818;stroke-width:1;"/><polygon fill="none" points="329.78,214.09,311.6202,219.5874,318.5506,229.3838,329.78,214.09" style="stroke:#181818;stroke-width:1;"/></g><!--reverse link Dataset to Concordance--><g class="link" data-entity-1="Dataset" data-entity-2="Concordance" data-source-line="13" data-uid="lnk15" id="link_Dataset_Concordance"><path codeLine="13" d="M380.7153,225.132 C401.6353,241.382 422.23,257.38 443.25,273.71" fill="none" id="Dataset-backto-Concordance" style="stroke:#181818;stroke-width:1;"/><polygon fill="none" points="366.5,214.09,377.0346,229.8704,384.396,220.3936,366.5,214.09" style="stroke:#181818;stroke-width:1;"/></g><!--reverse link Item to Service--><g class="link" data-entity-1="Item" data-entity-2="Service" data-source-line="15" data-uid="lnk17" id="link_Item_Service"><path codeLine="15" d="M340.6606,133.6836 C365.1106,149.7936 392.85,168.08 418.29,184.85" fill="none" id="Item-backto-Service" style="stroke:#181818;stroke-width:1;"/><polygon fill="none" points="325.63,123.78,337.3594,138.6938,343.9618,128.6734,325.63,123.78" style="stroke:#181818;stroke-width:1;"/></g><!--reverse link Item to Distribution--><g class="link" data-entity-1="Item" data-entity-2="Distribution" data-source-line="16" data-uid="lnk19" id="link_Item_Distribution"><path codeLine="16" d="M342.409,124.5559 C381.309,138.8959 455.25,166.15 506.37,185" fill="none" id="Item-backto-Distribution" style="stroke:#181818;stroke-width:1;"/><polygon fill="none" points="325.52,118.33,340.3337,130.1856,344.4843,118.9263,325.52,118.33" style="stroke:#181818;stroke-width:1;"/></g><!--reverse link Item to Concept--><g class="link" data-entity-1="Item" data-entity-2="Concept" data-source-line="17" data-uid="lnk21" id="link_Item_Concept"><path codeLine="17" d="M289.6401,140.5374 C279.9201,156.7874 273,168.38 263.24,184.71" fill="none" id="Item-backto-Concept" style="stroke:#181818;stroke-width:1;"/><polygon fill="none" points="298.88,125.09,284.4909,137.4575,294.7892,143.6174,298.88,125.09" style="stroke:#181818;stroke-width:1;"/></g><!--reverse link Item to Mapping--><g class="link" data-entity-1="Item" data-entity-2="Mapping" data-source-line="18" data-uid="lnk23" id="link_Item_Mapping"><path codeLine="18" d="M272.7391,131.3703 C245.4091,147.2203 210.14,167.68 180.37,184.94" fill="none" id="Item-backto-Mapping" style="stroke:#181818;stroke-width:1;"/><polygon fill="none" points="288.31,122.34,269.729,126.18,275.7492,136.5606,288.31,122.34" style="stroke:#181818;stroke-width:1;"/></g><!--reverse link Bundle to Mapping--><g class="link" data-entity-1="Bundle" data-entity-2="Mapping" data-source-line="20" data-uid="lnk24" id="link_Bundle_Mapping"><path codeLine="20" d="M157,143.09 C157,159.34 157,168.38 157,184.71" fill="none" id="Bundle-backto-Mapping" style="stroke:#181818;stroke-width:1;"/><polygon fill="none" points="157,125.09,151,143.09,163,143.09,157,125.09" style="stroke:#181818;stroke-width:1;"/></g><!--reverse link Bundle to Concept--><g class="link" data-entity-1="Bundle" data-entity-2="Concept" data-source-line="21" data-uid="lnk25" id="link_Bundle_Concept"><path codeLine="21" d="M185.7727,137.038 C204.0827,153.288 221.07,168.38 239.47,184.71" fill="none" id="Bundle-backto-Concept" style="stroke:#181818;stroke-width:1;"/><polygon fill="none" points="172.31,125.09,181.79,141.5256,189.7554,132.5505,172.31,125.09" style="stroke:#181818;stroke-width:1;"/></g><!--reverse link Bundle to Occurrence--><g class="link" data-entity-1="Bundle" data-entity-2="Occurrence" data-source-line="22" data-uid="lnk26" id="link_Bundle_Occurrence"><path codeLine="22" d="M125.9016,136.3185 C105.5416,152.5685 85.73,168.38 65.27,184.71" fill="none" id="Bundle-backto-Occurrence" style="stroke:#181818;stroke-width:1;"/><polygon fill="none" points="139.97,125.09,122.1587,131.629,129.6444,141.008,139.97,125.09" style="stroke:#181818;stroke-width:1;"/></g><!--SRC=[PO_13i8W38RlVGgo-zx0athnO4os9y1IHnC62p0J4n_U4J32F46_ltobcXM9cQ9sAe1E1R97GwLuC9aj03Go1D6Td4LQeXXHqqoTa44KbCc-xxXQPN9VlW8C5DpgaSJXtVVY4cdUeHlYwZrj0aXfXcSPPQ08vSnme8b3zA-MjX_wYvnNChah-KZ-oUsuvENx6jdP2XTrHQvoMTXE07cz5jRi-xHclqq_]--></g></svg>